<svg width="47" height="50" viewBox="0 0 47 50" fill="none" xmlns="http://www.w3.org/2000/svg">
<path fill-rule="evenodd" clip-rule="evenodd" d="M36.145 16.874C34.6848 16.874 33.2933 17.183 32.0243 17.7406C33.2158 15.9164 33.9151 13.7065 33.9151 11.3233C33.9151 5.06965 29.1109 0 23.185 0C17.259 0 12.455 5.06965 12.455 11.3233C12.455 13.5924 13.0899 15.7036 14.1788 17.4752C13.0961 17.0875 11.9368 16.874 10.73 16.874C4.80381 16.874 0 21.9437 0 28.1973C0 34.4509 4.80381 39.5205 10.73 39.5205C12.0683 39.5205 13.3485 39.2597 14.53 38.7872C14.5298 38.7898 19.5236 37.3667 22.8063 31.0614V34.8579C22.8063 34.8579 21.1232 46.8251 9.25724 48.1351H7.36355V50H39.6797V48.1351H37.7862C25.9202 46.8251 24.2369 34.8579 24.2369 34.8579V31.317C24.8483 32.7378 28.2288 39.6851 35.8262 39.5127C35.9324 39.5153 36.0381 39.5205 36.145 39.5205C42.0712 39.5205 46.875 34.4509 46.875 28.1973C46.875 21.9437 42.0712 16.874 36.145 16.874Z" fill="#1A1919"/>
</svg>
