<svg width="19" height="17" viewBox="0 0 19 17" fill="none" xmlns="http://www.w3.org/2000/svg">
<rect x="17" width="2" height="16" rx="1" fill="#616161"/>
<rect x="19" width="2" height="8" rx="1" transform="rotate(90 19 0)" fill="#616161"/>
<rect x="19" y="14" width="2" height="8" rx="1" transform="rotate(90 19 14)" fill="#616161"/>
<path d="M1.68336 8.23033C1.68336 8.49438 1.80219 8.77825 1.98703 8.95648L6.27795 13.2474C6.48259 13.4521 6.72685 13.5577 6.9711 13.5577C7.55202 13.5577 7.94811 13.1484 7.94811 12.6137C7.94811 12.3166 7.81608 12.0856 7.63124 11.9007L6.13272 10.4022L4.76623 9.14793L6.19213 9.22054H13.5725C14.1931 9.22054 14.6089 8.82446 14.6089 8.23033C14.6089 7.6362 14.1931 7.23351 13.5725 7.23351H6.19213L4.76623 7.31273L6.13272 6.05186L7.63124 4.54674C7.81608 4.3685 7.94811 4.13745 7.94811 3.83378C7.94811 3.29907 7.55202 2.89638 6.9711 2.89638C6.72685 2.89638 6.48259 3.002 6.27135 3.21325L1.98703 7.49757C1.80219 7.67581 1.68336 7.95967 1.68336 8.23033Z" fill="#616161"/>
</svg>
