<svg width="200" height="201" viewBox="0 0 200 201" fill="none" xmlns="http://www.w3.org/2000/svg">
<path d="M199.998 100.58C200.003 107.978 199.19 115.353 197.573 122.572C195.073 133.726 190.659 144.362 184.529 154.01C176.595 166.553 165.972 177.176 153.428 185.11C143.781 191.24 133.145 195.654 121.991 198.154C107.508 201.388 92.4902 201.388 78.0074 198.154C66.8537 195.654 56.2173 191.24 46.5699 185.11C34.0261 177.176 23.4031 166.553 15.4697 154.01C9.33913 144.362 4.92587 133.726 2.42567 122.572C-0.808557 108.084 -0.808557 93.0607 2.42567 78.5724C6.60119 60.1244 15.9162 43.2362 29.2923 29.863C42.6684 16.4897 59.5585 7.17835 78.0074 3.00675C92.4902 -0.227511 107.508 -0.227511 121.991 3.00675C140.438 7.18296 157.325 16.4959 170.701 29.8684C184.076 43.2409 193.393 60.1266 197.573 78.5724C199.191 85.7964 200.004 93.1773 199.998 100.58Z" fill="#B10000"/>
<path d="M100.001 160.415C133.05 160.415 159.84 133.624 159.84 100.576C159.84 67.5281 133.05 40.7373 100.001 40.7373C66.9534 40.7373 40.1626 67.5281 40.1626 100.576C40.1626 133.624 66.9534 160.415 100.001 160.415Z" fill="white"/>
<path d="M123.857 113.558C127.02 110.395 128.797 106.105 128.797 101.632C128.797 97.1582 127.02 92.868 123.857 89.7048L100.003 65.8512L76.1496 89.7048C73.5228 92.3382 71.8401 95.7659 71.3633 99.4547C70.8865 103.143 71.6423 106.886 73.5132 110.101C75.3841 113.316 78.2651 115.822 81.7079 117.23C85.1507 118.637 88.9623 118.868 92.5495 117.885C91.8184 124.072 89.7344 130.024 86.4451 135.316H113.566C110.276 130.024 108.192 124.073 107.462 117.885C110.333 118.677 113.363 118.694 116.243 117.934C119.123 117.174 121.75 115.664 123.857 113.558V113.558Z" fill="#B10000"/>
<path d="M121.991 3.00675L116.53 23.0708H83.4696L78.0078 3.00675C92.4906 -0.227511 107.509 -0.227511 121.991 3.00675V3.00675Z" fill="white"/>
<path d="M121.991 198.155C107.509 201.389 92.4906 201.389 78.0078 198.155L83.4696 178.075H116.53L121.991 198.155Z" fill="white"/>
<path d="M184.529 47.1498L166.489 57.463L143.115 34.0736L153.412 16.0336C165.965 23.9679 176.594 34.597 184.529 47.1498V47.1498Z" fill="white"/>
<path d="M56.8884 167.07L46.5752 185.11C34.0315 177.177 23.4084 166.554 15.4751 154.01L33.5151 143.697L56.8884 167.07Z" fill="white"/>
<path d="M200 100.582C200.005 107.98 199.191 115.355 197.574 122.574L177.51 117.112V84.0521L197.574 78.5742C199.192 85.7982 200.005 93.1791 200 100.582Z" fill="white"/>
<path d="M22.4898 84.0521V117.112L2.42567 122.574C-0.808556 108.086 -0.808556 93.0625 2.42567 78.5742L22.4898 84.0521Z" fill="white"/>
<path d="M184.529 154.01C176.595 166.554 165.972 177.177 153.428 185.11L143.115 167.07L166.489 143.697L184.529 154.01Z" fill="white"/>
<path d="M56.8884 34.0736L33.5151 57.463L15.4751 47.1498C23.4094 34.597 34.0385 23.9679 46.5913 16.0336L56.8884 34.0736Z" fill="white"/>
</svg>
