<svg width="339" height="340" viewBox="0 0 339 340" fill="none" xmlns="http://www.w3.org/2000/svg">
<g filter="url(#filter0_i_1101_4)">
<path d="M338.93 169.882C338.938 182.416 337.56 194.912 334.819 207.142C330.584 226.041 323.106 244.062 312.719 260.408C299.277 281.661 281.278 299.66 260.025 313.102C243.68 323.489 225.658 330.967 206.759 335.202C182.221 340.682 156.776 340.682 132.238 335.202C113.34 330.967 95.3184 323.489 78.9727 313.102C57.7192 299.66 39.721 281.661 26.279 260.408C15.8918 244.062 8.41432 226.041 4.17818 207.142C-1.30158 182.595 -1.30158 157.141 4.17818 132.594C11.2529 101.337 27.0354 72.7226 49.6983 50.0642C72.3626 27.4056 100.98 11.6291 132.238 4.56108C156.776 -0.918797 182.221 -0.918797 206.759 4.56108C238.015 11.6369 266.628 27.416 289.29 50.0733C311.952 72.7305 327.737 101.34 334.819 132.594C337.561 144.833 338.939 157.339 338.93 169.882Z" fill="#B10000"/>
<path d="M169.501 271.261C225.495 271.261 270.888 225.869 270.888 169.874C270.888 113.881 225.495 68.4888 169.501 68.4888C113.507 68.4888 68.1152 113.881 68.1152 169.874C68.1152 225.869 113.507 271.261 169.501 271.261Z" fill="white"/>
<path d="M209.921 191.871C215.28 186.511 218.291 179.243 218.291 171.663C218.291 164.084 215.28 156.814 209.921 151.455L169.505 111.04L129.09 151.455C124.64 155.916 121.789 161.725 120.98 167.974C120.172 174.224 121.453 180.566 124.623 186.013C127.793 191.46 132.674 195.706 138.507 198.091C144.341 200.476 150.799 200.867 156.877 199.201C155.638 209.685 152.107 219.768 146.534 228.735H192.486C186.911 219.768 183.38 209.685 182.142 199.201C187.007 200.544 192.141 200.572 197.021 199.284C201.9 197.996 206.352 195.439 209.921 191.871Z" fill="#B10000"/>
<path d="M206.758 4.56108L197.505 38.5561H141.491L132.236 4.56108C156.775 -0.918797 182.22 -0.918797 206.758 4.56108Z" fill="white"/>
<path d="M206.758 335.204C182.22 340.684 156.775 340.684 132.236 335.204L141.491 301.182H197.505L206.758 335.204Z" fill="white"/>
<path d="M312.716 79.3538L282.151 96.8278L242.549 57.1983L259.995 26.6328C281.264 40.0761 299.272 58.0851 312.716 79.3538Z" fill="white"/>
<path d="M96.4545 282.537L78.9804 313.103C57.728 299.661 39.7287 281.662 26.2871 260.41L56.8526 242.936L96.4545 282.537Z" fill="white"/>
<path d="M338.932 169.885C338.94 182.419 337.562 194.915 334.822 207.146L300.827 197.892V141.878L334.822 132.597C337.563 144.837 338.943 157.342 338.932 169.885Z" fill="white"/>
<path d="M38.1735 141.878V197.892L4.17818 207.146C-1.30158 182.599 -1.30158 157.144 4.17818 132.597L38.1735 141.878Z" fill="white"/>
<path d="M312.716 260.41C299.275 281.662 281.275 299.661 260.023 313.103L242.549 282.537L282.151 242.936L312.716 260.41Z" fill="white"/>
<path d="M96.4545 57.1983L56.8526 96.8278L26.2871 79.3538C39.7298 58.0851 57.7393 40.0761 79.0075 26.6328L96.4545 57.1983Z" fill="white"/>
</g>
<defs>
<filter id="filter0_i_1101_4" x="0.0683594" y="0.451172" width="338.864" height="342.285" filterUnits="userSpaceOnUse" color-interpolation-filters="sRGB">
<feFlood flood-opacity="0" result="BackgroundImageFix"/>
<feBlend mode="normal" in="SourceGraphic" in2="BackgroundImageFix" result="shape"/>
<feColorMatrix in="SourceAlpha" type="matrix" values="0 0 0 0 0 0 0 0 0 0 0 0 0 0 0 0 0 0 127 0" result="hardAlpha"/>
<feOffset dy="3.42269"/>
<feGaussianBlur stdDeviation="3.42269"/>
<feComposite in2="hardAlpha" operator="arithmetic" k2="-1" k3="1"/>
<feColorMatrix type="matrix" values="0 0 0 0 0 0 0 0 0 0 0 0 0 0 0 0 0 0 0.12 0"/>
<feBlend mode="normal" in2="shape" result="effect1_innerShadow_1101_4"/>
</filter>
</defs>
</svg>
