<svg width="84" height="68" viewBox="0 0 84 68" fill="none" xmlns="http://www.w3.org/2000/svg">
<path d="M31.0083 36.1637L43.012 67.8242H44.4391L56.4427 36.1637H31.0083Z" fill="#7ECAFF"/>
<path d="M41.1192 66.7686C41.6204 67.3335 42.2949 67.685 43.0122 67.8243L31.0085 36.1638L14.2307 30.8789C14.3071 31.4461 12.4938 28.763 41.1192 66.7686Z" fill="#B0E6FF"/>
<path d="M20.1696 32.7497L14.2307 30.879C14.3071 31.4461 12.4939 28.763 41.1192 66.7685C41.4903 67.1868 41.9568 67.4875 42.4651 67.6722L20.1696 32.7497Z" fill="#70C0E2"/>
<path d="M24.144 17.8278L31.0086 36.1638L43.7258 21.6558L24.3761 17.7125C24.292 17.7491 24.2142 17.7878 24.144 17.8278Z" fill="#B0E6FF"/>
<path d="M56.443 36.1638L44.4395 67.8242C45.1568 67.6849 45.8312 67.3333 46.3325 66.7685C53.7766 56.9084 73.3089 31.0712 73.3679 30.8326L56.443 36.1638Z" fill="#B0E6FF"/>
<path d="M56.4428 36.1638L63.3051 17.8337C63.2242 17.7877 63.1438 17.7487 63.0654 17.7146L43.7256 21.6558L56.4428 36.1638Z" fill="#B0E6FF"/>
<path d="M31.0083 36.1637H56.4427L43.7255 21.6558L31.0083 36.1637Z" fill="#5EBFF5"/>
<path d="M24.1438 17.8278C23.6911 18.0852 23.6213 18.2375 22.9096 19.15C13.645 31.0305 14.1296 30.1323 14.2306 30.8788L31.0084 36.1637L24.1438 17.8278Z" fill="#7ECAFF"/>
<path d="M20.1696 32.7496L24.2582 18.1331L24.1439 17.8276C23.6913 18.0851 23.6214 18.2373 22.9097 19.1499C13.645 31.0305 14.1297 30.1323 14.2305 30.8788L20.1696 32.7496Z" fill="#57B5DD"/>
<path d="M56.4429 36.1637L73.3676 30.8327C73.4153 30.5842 73.3434 30.4371 73.2231 30.2829C64.8299 19.508 63.6659 17.9214 63.3052 17.8336L56.4429 36.1637Z" fill="#7ECAFF"/>
<path d="M43.7257 21.6558L63.0656 17.7146C62.6586 17.5381 62.3342 17.5125 62.322 17.5103L46.7352 15.411C41.8314 14.7504 39.718 15.7489 25.0888 17.5159C25.0662 17.5207 24.7518 17.5491 24.376 17.7126L43.7257 21.6558Z" fill="#5EBFF5"/>
<path d="M69.8298 10.9492L70.2882 13.9604L72.8751 15.5729L69.8604 16.0308L68.246 18.6147L67.7877 15.6035L65.2008 13.991L68.2154 13.5331L69.8298 10.9492Z" fill="white"/>
<path d="M51.1853 16.8747L51.6437 19.8859L54.2306 21.4985L51.2159 21.9563L49.6015 24.5402L49.1431 21.529L46.5563 19.9165L49.5709 19.4587L51.1853 16.8747Z" fill="white"/>
<path d="M82.1801 23.7076L81.3871 25.3755L82.1386 27.0625L80.4687 26.2704L78.7798 27.021L79.5728 25.3531L78.8213 23.6661L80.4912 24.4582L82.1801 23.7076Z" fill="white"/>
<path d="M5.05901 17.7819L4.26604 19.4499L5.01749 21.1369L3.34765 20.3448L1.65873 21.0954L2.4517 19.4275L1.70025 17.7405L3.37008 18.5325L5.05901 17.7819Z" fill="white"/>
<path d="M22.8559 16.0889L22.0629 17.7569L22.8144 19.4439L21.1445 18.6518L19.4556 19.4024L20.2486 17.7345L19.4971 16.0475L21.167 16.8395L22.8559 16.0889Z" fill="white"/>
<path d="M46.6545 7.94033L46.5731 9.78498L47.9221 11.0474L46.0754 10.9662L44.8115 12.3136L44.8928 10.469L43.5438 9.20654L45.3906 9.28778L46.6545 7.94033Z" fill="white"/>
<path d="M13.5336 38.0983L12.7406 39.7663L13.4921 41.4533L11.8223 40.6612L10.1333 41.4118L10.9263 39.7439L10.1749 38.0569L11.8447 38.8489L13.5336 38.0983Z" fill="white"/>
<path d="M27.1312 6.53685L27.0435 7.6712L27.8486 8.47605L26.7129 8.3885L25.9072 9.19264L25.9948 8.05829L25.1897 7.25343L26.3254 7.34098L27.1312 6.53685Z" fill="white"/>
<path d="M57.64 0.611308L57.5523 1.74566L58.3574 2.55051L57.2217 2.46297L56.4159 3.2671L56.5036 2.13275L55.6985 1.3279L56.8342 1.41544L57.64 0.611308Z" fill="white"/>
<path d="M77.9798 35.3185L77.8922 36.4528L78.6972 37.2577L77.5616 37.1701L76.7558 37.9743L76.8434 36.8399L76.0384 36.0351L77.174 36.1226L77.9798 35.3185Z" fill="white"/>
</svg>
