<svg width="79" height="70" viewBox="0 0 79 70" fill="none" xmlns="http://www.w3.org/2000/svg">
<g filter="url(#filter0_d_1126_66)">
<rect width="35.3578" height="49.7041" rx="4.04209" transform="matrix(0.966 -0.258542 0.259096 0.965852 3.98779 17.5126)" fill="#252525"/>
<rect x="1.54748" y="0.89344" width="32.8315" height="47.1778" rx="2.77894" transform="matrix(0.966 -0.258542 0.259096 0.965852 3.80892 17.9432)" stroke="white" stroke-width="2.52631"/>
</g>
<g filter="url(#filter1_d_1126_66)">
<rect width="24.7505" height="39.1073" rx="1.01052" transform="matrix(0.966 -0.258542 0.259096 0.965852 10.4839 21.2589)" fill="#252525"/>
<rect x="0.154748" y="0.089344" width="24.4978" height="38.8547" rx="0.884208" transform="matrix(0.966 -0.258542 0.259096 0.965852 10.466 21.302)" stroke="white" stroke-width="0.252631"/>
</g>
<g clip-path="url(#clip0_1126_66)">
<path d="M22.4541 34.0818L20.5613 33.0006C22.4949 29.5797 27.1289 27.799 31.2214 29.8786C35.4258 32.0141 36.821 37.1771 34.439 41.1017C31.9809 45.1527 26.9308 45.9845 23.5034 43.9526L24.5967 42.0754C24.617 42.0854 24.6452 42.0974 24.6737 42.1129C25.0037 42.2785 25.3359 42.4404 25.6894 42.5529C26.3223 42.7552 26.9851 42.8506 27.6504 42.8354C29.0272 42.8019 30.3498 42.2884 31.3865 41.3849C31.8401 40.9893 32.2302 40.5272 32.5432 40.0147C33.2551 38.8505 33.5356 37.4772 33.3362 36.1323C33.2124 35.3065 32.9115 34.5172 32.4537 33.818C31.9959 33.1187 31.392 32.5256 30.6826 32.0789C29.6886 31.4529 28.5985 31.1546 27.421 31.1748C26.0638 31.206 24.7575 31.7015 23.7228 32.5774C23.2581 32.9642 22.8613 33.425 22.5489 33.941C22.5248 33.9824 22.497 34.0248 22.4699 34.0643C22.4653 34.0707 22.46 34.0765 22.4541 34.0818V34.0818Z" fill="#509BFF"/>
<path d="M30.6482 37.587L28.9878 36.6364L32.7206 35.6374C33.2725 37.5255 32.6358 40.1449 30.3237 41.5546C29.2052 42.2352 27.8763 42.4875 26.5867 42.2642C25.2971 42.0408 24.1356 41.3572 23.3205 40.3418C22.5054 39.3264 22.0929 38.0491 22.1603 36.7499C22.2278 35.4507 22.7707 34.2192 23.6869 33.2866C25.5721 31.3688 28.3593 31.2731 30.1949 32.3721L29.0978 34.2521C28.399 33.8591 27.6434 33.7472 26.8467 33.9185C26.2014 34.0537 25.6159 34.3901 25.1756 34.8786C24.8433 35.24 24.5997 35.6728 24.464 36.1428C24.3282 36.6129 24.3039 37.1074 24.393 37.5876C24.4822 38.0678 24.6823 38.5206 24.9777 38.9103C25.2731 39.3001 25.6557 39.6162 26.0954 39.8338C26.5352 40.0514 27.0201 40.1647 27.5121 40.1646C28.0041 40.1646 28.4898 40.0512 28.931 39.8335C29.3722 39.6158 29.7569 39.2996 30.0549 38.9098C30.3528 38.52 30.5559 38.0672 30.6482 37.587Z" fill="#509BFF"/>
<path d="M27.7212 39.6735C27.0902 39.7223 26.4629 39.5483 25.9499 39.1821C25.437 38.816 25.0713 38.2812 24.9176 37.6723C24.5619 36.2675 25.3846 35.0402 26.3608 34.6062L27.7212 39.6735Z" fill="#509BFF"/>
</g>
<g filter="url(#filter2_d_1126_66)">
<rect width="35.3578" height="49.7041" rx="4.04209" transform="matrix(0.966 0.258542 -0.259096 0.965852 40.708 3.00513)" fill="#252525"/>
<rect x="0.892928" y="1.5466" width="32.8315" height="47.1778" rx="2.77894" transform="matrix(0.966 0.258542 -0.259096 0.965852 41.1391 2.82708)" stroke="white" stroke-width="2.52631"/>
</g>
<g filter="url(#filter3_d_1126_66)">
<rect width="24.7505" height="39.1073" rx="1.01052" transform="matrix(0.966 0.258542 -0.259096 0.965852 44.4585 9.4939)" fill="#252525"/>
<rect x="0.0892928" y="0.15466" width="24.4978" height="38.8547" rx="0.884208" transform="matrix(0.966 0.258542 -0.259096 0.965852 44.5016 9.47609)" stroke="white" stroke-width="0.252631"/>
</g>
<g clip-path="url(#clip1_1126_66)">
<path d="M48.4064 26.5772L47.3084 24.6956C50.6954 22.6987 55.5999 23.4709 58.1031 27.3157C60.6753 31.265 59.2991 36.4331 55.2717 38.6423C51.1151 40.9229 46.3252 39.1211 44.3741 35.6497L46.2606 34.57C46.2732 34.5887 46.2916 34.6133 46.3085 34.6409C46.5114 34.9491 46.7181 35.2553 46.9679 35.5292C47.4147 36.0205 47.9409 36.4342 48.5248 36.7532C49.7339 37.4118 51.1363 37.6277 52.4864 37.363C53.0773 37.247 53.6464 37.0416 54.174 36.754C55.3733 36.1014 56.3037 35.0521 56.8041 33.7878C57.1104 33.0108 57.2448 32.177 57.1984 31.3428C57.152 30.5086 56.9258 29.6933 56.5352 28.9522C55.9877 27.9137 55.1929 27.1109 54.163 26.5403C52.9721 25.8896 51.5928 25.6662 50.2582 25.908C49.6622 26.0109 49.0879 26.2118 48.559 26.5026C48.5174 26.5265 48.4721 26.5493 48.4288 26.5699C48.4217 26.5732 48.4141 26.5756 48.4064 26.5772V26.5772Z" fill="#509BFF"/>
<path d="M53.7478 33.705L52.7857 32.0525L56.5184 33.0516C56.0513 34.9624 54.1886 36.9129 51.4807 36.979C50.1714 37.0098 48.8942 36.5646 47.8891 35.7271C46.8841 34.8897 46.2204 33.7176 46.0228 32.4311C45.8252 31.1447 46.1073 29.8324 46.8161 28.741C47.5248 27.6496 48.6115 26.8541 49.8718 26.5041C52.4644 25.7848 54.9261 27.0939 55.9656 28.9624L54.0745 30.0426C53.666 29.3533 53.0676 28.879 52.2919 28.6294C51.6654 28.4242 50.9899 28.4231 50.3641 28.6263C49.8954 28.7734 49.4678 29.0265 49.115 29.3657C48.7621 29.705 48.4935 30.1212 48.3303 30.5816C48.1671 31.0419 48.1138 31.534 48.1745 32.019C48.2352 32.5041 48.4084 32.9689 48.6803 33.377C48.9521 33.7851 49.3154 34.1254 49.7415 34.3711C50.1677 34.6167 50.645 34.7612 51.1361 34.7929C51.6271 34.8247 52.1186 34.743 52.5717 34.5543C53.0249 34.3655 53.4274 34.0748 53.7478 33.705Z" fill="#509BFF"/>
<path d="M50.1684 34.0501C49.5975 33.7772 49.1413 33.3132 48.8804 32.7399C48.6194 32.1667 48.5705 31.521 48.7421 30.9168C49.1373 29.5226 50.4641 28.8706 51.5268 28.9822L50.1684 34.0501Z" fill="#509BFF"/>
</g>
<defs>
<filter id="filter0_d_1126_66" x="0.601274" y="5.61456" width="53.8067" height="63.9245" filterUnits="userSpaceOnUse" color-interpolation-filters="sRGB">
<feFlood flood-opacity="0" result="BackgroundImageFix"/>
<feColorMatrix in="SourceAlpha" type="matrix" values="0 0 0 0 0 0 0 0 0 0 0 0 0 0 0 0 0 0 127 0" result="hardAlpha"/>
<feOffset dy="0.631577"/>
<feGaussianBlur stdDeviation="2.14736"/>
<feColorMatrix type="matrix" values="0 0 0 0 0 0 0 0 0 0 0 0 0 0 0 0 0 0 0.1 0"/>
<feBlend mode="normal" in2="BackgroundImageFix" result="effect1_dropShadow_1126_66"/>
<feBlend mode="normal" in="SourceGraphic" in2="effect1_dropShadow_1126_66" result="shape"/>
</filter>
<filter id="filter1_d_1126_66" x="6.41621" y="11.4234" width="42.1768" height="52.307" filterUnits="userSpaceOnUse" color-interpolation-filters="sRGB">
<feFlood flood-opacity="0" result="BackgroundImageFix"/>
<feColorMatrix in="SourceAlpha" type="matrix" values="0 0 0 0 0 0 0 0 0 0 0 0 0 0 0 0 0 0 127 0" result="hardAlpha"/>
<feOffset dy="0.631577"/>
<feGaussianBlur stdDeviation="2.14736"/>
<feColorMatrix type="matrix" values="0 0 0 0 0 0 0 0 0 0 0 0 0 0 0 0 0 0 0.1 0"/>
<feBlend mode="normal" in2="BackgroundImageFix" result="effect1_dropShadow_1126_66"/>
<feBlend mode="normal" in="SourceGraphic" in2="effect1_dropShadow_1126_66" result="shape"/>
</filter>
<filter id="filter2_d_1126_66" x="24.4436" y="0.248598" width="53.8067" height="63.9245" filterUnits="userSpaceOnUse" color-interpolation-filters="sRGB">
<feFlood flood-opacity="0" result="BackgroundImageFix"/>
<feColorMatrix in="SourceAlpha" type="matrix" values="0 0 0 0 0 0 0 0 0 0 0 0 0 0 0 0 0 0 127 0" result="hardAlpha"/>
<feOffset dy="0.631577"/>
<feGaussianBlur stdDeviation="2.14736"/>
<feColorMatrix type="matrix" values="0 0 0 0 0 0 0 0 0 0 0 0 0 0 0 0 0 0 0.1 0"/>
<feBlend mode="normal" in2="BackgroundImageFix" result="effect1_dropShadow_1126_66"/>
<feBlend mode="normal" in="SourceGraphic" in2="effect1_dropShadow_1126_66" result="shape"/>
</filter>
<filter id="filter3_d_1126_66" x="30.2585" y="6.05744" width="42.1764" height="52.307" filterUnits="userSpaceOnUse" color-interpolation-filters="sRGB">
<feFlood flood-opacity="0" result="BackgroundImageFix"/>
<feColorMatrix in="SourceAlpha" type="matrix" values="0 0 0 0 0 0 0 0 0 0 0 0 0 0 0 0 0 0 127 0" result="hardAlpha"/>
<feOffset dy="0.631577"/>
<feGaussianBlur stdDeviation="2.14736"/>
<feColorMatrix type="matrix" values="0 0 0 0 0 0 0 0 0 0 0 0 0 0 0 0 0 0 0.1 0"/>
<feBlend mode="normal" in2="BackgroundImageFix" result="effect1_dropShadow_1126_66"/>
<feBlend mode="normal" in="SourceGraphic" in2="effect1_dropShadow_1126_66" result="shape"/>
</filter>
<clipPath id="clip0_1126_66">
<rect width="13.7643" height="16.0214" fill="white" transform="matrix(0.966 -0.258542 0.259096 0.965852 19.9561 30.7382)"/>
</clipPath>
<clipPath id="clip1_1126_66">
<rect width="13.7643" height="16.0214" fill="white" transform="matrix(0.966 0.258542 -0.259096 0.965852 47.9165 22.4338)"/>
</clipPath>
</defs>
</svg>
