<svg width="21" height="19" viewBox="0 0 21 19" fill="none" xmlns="http://www.w3.org/2000/svg">
<path fill-rule="evenodd" clip-rule="evenodd" d="M5.93162 9.85045H2.42735L2.42735 16.5086H5.93162V9.85045ZM2.42735 7.9231C1.3629 7.9231 0.5 8.786 0.5 9.85045V16.5121C0.5 17.5746 1.36133 18.4359 2.42385 18.4359H6.28205V9.85045C6.28205 8.786 6.99607 7.9231 5.93162 7.9231H2.42735Z" fill="#616161"/>
<path fill-rule="evenodd" clip-rule="evenodd" d="M13.2906 2.49144L7.68376 2.49143V16.5085H13.2906L13.2906 2.49144ZM7.68376 0.564087C6.61931 0.564087 5.75641 1.42699 5.75641 2.49143V18.4359H15.2179V2.49144C15.2179 1.42699 14.355 0.564087 13.2906 0.564087H7.68376Z" fill="#616161"/>
<path fill-rule="evenodd" clip-rule="evenodd" d="M19.0726 5.64531H14.5171V16.5086H19.0726V5.64531ZM14.5171 3.71796C13.4526 3.71796 14.1666 4.58086 14.1666 5.64531V18.4359H19.0761C20.1386 18.4359 21 17.5746 21 16.5121V5.64531C21 4.58086 20.1371 3.71796 19.0726 3.71796H14.5171Z" fill="#616161"/>
</svg>
