<svg width="43" height="50" viewBox="0 0 43 50" fill="none" xmlns="http://www.w3.org/2000/svg">
<path fill-rule="evenodd" clip-rule="evenodd" d="M31.2096 39.1818C39.4238 39.2878 44.4771 33.2434 41.6976 26.8811C38.9181 20.5186 36.1472 19.0871 31.784 14.4744C27.4186 9.86164 21.071 1.88216 21.101 2.09424e-07C21.1331 1.88216 15.0469 9.86164 10.6816 14.4744C6.31841 19.0871 3.54962 20.5186 0.767975 26.8811C-2.01153 33.2434 3.04387 39.2878 11.2559 39.1818C16.8942 39.1089 19.4316 35.3888 20.4667 33.0629L20.4667 36.1069C20.4667 36.1069 18.6665 47.087 5.96267 48.289L3.93751 48.289L3.93751 50L38.5302 50L38.5302 48.289L36.5029 48.289C23.8012 47.087 21.9989 36.1069 21.9989 36.1069L21.9989 33.4626C23.2183 35.791 25.8842 39.113 31.2096 39.1818Z" fill="#1A1919"/>
</svg>
